<mxfile host="app.diagrams.net" modified="2023-01-12T03:59:05.614Z" agent="5.0 (Windows NT 10.0; Win64; x64) AppleWebKit/537.36 (KHTML, like Gecko) Chrome/108.0.0.0 Safari/537.36" version="20.8.3" etag="-BFHgLhWyrgYP1ezJDvp" type="github">
  <diagram id="2fqRmTUg2xmBkKct_itL" name="Page-1">
    <mxGraphModel dx="1434" dy="884" grid="1" gridSize="10" guides="1" tooltips="1" connect="1" arrows="1" fold="1" page="1" pageScale="1" pageWidth="1169" pageHeight="827" math="0" shadow="0">
      <root>
        <mxCell id="0" />
        <mxCell id="1" parent="0" />
        <mxCell id="ac5REmqUDFBW2QiY6OcQ-1" value="" style="edgeStyle=orthogonalEdgeStyle;rounded=0;orthogonalLoop=1;jettySize=auto;html=1;" edge="1" parent="1" source="ac5REmqUDFBW2QiY6OcQ-2" target="ac5REmqUDFBW2QiY6OcQ-12">
          <mxGeometry relative="1" as="geometry" />
        </mxCell>
        <mxCell id="ac5REmqUDFBW2QiY6OcQ-2" value="Sprint Planning Starts" style="ellipse;whiteSpace=wrap;html=1;aspect=fixed;fillColor=#d5e8d4;strokeColor=none;" vertex="1" parent="1">
          <mxGeometry x="40" y="140" width="80" height="80" as="geometry" />
        </mxCell>
        <mxCell id="ac5REmqUDFBW2QiY6OcQ-3" value="" style="edgeStyle=orthogonalEdgeStyle;rounded=0;orthogonalLoop=1;jettySize=auto;html=1;" edge="1" parent="1" source="ac5REmqUDFBW2QiY6OcQ-4" target="ac5REmqUDFBW2QiY6OcQ-6">
          <mxGeometry relative="1" as="geometry" />
        </mxCell>
        <mxCell id="ac5REmqUDFBW2QiY6OcQ-4" value="Initial Requirements Discussion w/ Design Office and Squads" style="rounded=0;whiteSpace=wrap;html=1;fillColor=#dae8fc;strokeColor=none;" vertex="1" parent="1">
          <mxGeometry x="350" y="150" width="120" height="60" as="geometry" />
        </mxCell>
        <mxCell id="ac5REmqUDFBW2QiY6OcQ-5" value="" style="edgeStyle=orthogonalEdgeStyle;rounded=0;orthogonalLoop=1;jettySize=auto;html=1;" edge="1" parent="1" source="ac5REmqUDFBW2QiY6OcQ-6" target="ac5REmqUDFBW2QiY6OcQ-9">
          <mxGeometry relative="1" as="geometry" />
        </mxCell>
        <mxCell id="ac5REmqUDFBW2QiY6OcQ-6" value="Squad will break down Requirements into PBIs" style="rounded=0;whiteSpace=wrap;html=1;fillColor=#dae8fc;strokeColor=none;" vertex="1" parent="1">
          <mxGeometry x="550" y="150" width="120" height="60" as="geometry" />
        </mxCell>
        <mxCell id="ac5REmqUDFBW2QiY6OcQ-7" value="- Agree Goal for Next Sprint&lt;br&gt;- Agree with squads the Requirements to be completed or progressed for the next sprint&lt;br&gt;- Agree showcase / sprint review demo candidates" style="text;html=1;strokeColor=none;fillColor=none;align=left;verticalAlign=middle;whiteSpace=wrap;rounded=0;" vertex="1" parent="1">
          <mxGeometry x="350" y="220" width="170" height="110" as="geometry" />
        </mxCell>
        <mxCell id="ac5REmqUDFBW2QiY6OcQ-8" value="" style="edgeStyle=orthogonalEdgeStyle;rounded=0;orthogonalLoop=1;jettySize=auto;html=1;" edge="1" parent="1" source="ac5REmqUDFBW2QiY6OcQ-9" target="ac5REmqUDFBW2QiY6OcQ-14">
          <mxGeometry relative="1" as="geometry" />
        </mxCell>
        <mxCell id="ac5REmqUDFBW2QiY6OcQ-9" value="Sprint Planning" style="rounded=0;whiteSpace=wrap;html=1;fillColor=#dae8fc;strokeColor=none;" vertex="1" parent="1">
          <mxGeometry x="750" y="150" width="120" height="60" as="geometry" />
        </mxCell>
        <mxCell id="ac5REmqUDFBW2QiY6OcQ-10" value="- Discuss team capicity and squad member point allocation&lt;br&gt;- Review PBIs for quality, size, DoR&lt;br&gt;- Get commitment from Team that work is ready and achievable" style="text;html=1;strokeColor=none;fillColor=none;align=left;verticalAlign=middle;whiteSpace=wrap;rounded=0;" vertex="1" parent="1">
          <mxGeometry x="750" y="220" width="155" height="130" as="geometry" />
        </mxCell>
        <mxCell id="ac5REmqUDFBW2QiY6OcQ-11" value="" style="edgeStyle=orthogonalEdgeStyle;rounded=0;orthogonalLoop=1;jettySize=auto;html=1;" edge="1" parent="1" source="ac5REmqUDFBW2QiY6OcQ-12" target="ac5REmqUDFBW2QiY6OcQ-4">
          <mxGeometry relative="1" as="geometry" />
        </mxCell>
        <mxCell id="ac5REmqUDFBW2QiY6OcQ-12" value="Identify Requirements which meet the Definition o Ready.&amp;nbsp;" style="rounded=0;whiteSpace=wrap;html=1;strokeColor=none;fillColor=#dae8fc;" vertex="1" parent="1">
          <mxGeometry x="160" y="150" width="120" height="60" as="geometry" />
        </mxCell>
        <mxCell id="ac5REmqUDFBW2QiY6OcQ-13" value="- To be completed by Design Office" style="text;html=1;strokeColor=none;fillColor=none;align=left;verticalAlign=middle;whiteSpace=wrap;rounded=0;" vertex="1" parent="1">
          <mxGeometry x="160" y="220" width="120" height="60" as="geometry" />
        </mxCell>
        <mxCell id="ac5REmqUDFBW2QiY6OcQ-14" value="Start Sprint" style="rounded=0;whiteSpace=wrap;html=1;strokeColor=none;fillColor=#f8cecc;" vertex="1" parent="1">
          <mxGeometry x="950" y="150" width="120" height="60" as="geometry" />
        </mxCell>
        <mxCell id="ac5REmqUDFBW2QiY6OcQ-15" value="Squads will prepare PBIs that meet the definition of ready" style="text;html=1;strokeColor=none;fillColor=none;align=left;verticalAlign=middle;whiteSpace=wrap;rounded=0;" vertex="1" parent="1">
          <mxGeometry x="555" y="220" width="135" height="70" as="geometry" />
        </mxCell>
      </root>
    </mxGraphModel>
  </diagram>
</mxfile>
